<?xml version="1.0" encoding="utf-8"?>
<!-- Generator: Adobe Illustrator 24.0.0, SVG Export Plug-In . SVG Version: 6.00 Build 0)  -->
<svg version="1.1" id="Capa_1" xmlns="http://www.w3.org/2000/svg" xmlns:xlink="http://www.w3.org/1999/xlink" x="0px" y="0px"
	 viewBox="0 0 1114.5 168.5" style="enable-background:new 0 0 1114.5 168.5;" xml:space="preserve">
<style type="text/css">
	.st0{fill:#424242;}
	.st1{font-family:'ArialMT';}
	.st2{font-size:16.5026px;}
	.st3{font-size:24.7539px;}
	.st4{fill:none;stroke:#000000;stroke-width:0.5;stroke-miterlimit:10;}
	.st5{fill:#010002;}
	.st6{fill:#E37527;}
	.st7{fill:#2A2526;}
	.st8{fill:#FEFEFD;}
</style>
<title>SC-sign-image</title>
<text transform="matrix(1 0 0 1 7.1406 25.4221)" class="st0 st1 st2">Electronically signed by</text>
<text transform="matrix(1 0 0 1 7.1406 50.3137)" class="st1 st3">##SIGNER##</text>
<text transform="matrix(1 0 0 1 7.1406 78.3684)" class="st0 st1 st2">Date and time of signing</text>
<text transform="matrix(1 0 0 1 7.1406 104.635)" class="st1 st3">##SIGNTIME##</text>
<text transform="matrix(1 0 0 1 7.1406 132.6892)" class="st0 st1 st2">Authenticated by</text>
<text transform="matrix(1 0 0 1 7.1406 158.2683)" class="st1 st3">##IDP##</text>
<path class="st4" d="M1104.4,167.1H11.6c-5.6,0-10.1-4.3-10.1-9.6V9.6C1.5,4.3,6,0,11.6,0h1092.8c5.6,0,10.1,4.3,10.1,9.6v147.9
	C1114.5,162.8,1110,167.1,1104.4,167.1z"/>
<path class="st5" d="M1067.5,89.3c-0.5-0.6-2.8-1.5-6.1,0.8c-3.4,2.3-8.5,6.6-5.8,9.7c2.8,3.2,9.7,9.6,11.4,11.2
	c0.7,0.7,1.3,1.7,2,2.8c1.1-2.6,2.7-4.7,4.9-6.1c1.5-1,3.3-1.6,5.1-1.9c-0.3-0.3-0.7-0.6-1-0.9c-0.5-0.6-3.2-4-5.3-7.6
	C1070.8,93.9,1067.9,90,1067.5,89.3z"/>
<path class="st5" d="M1083.5,114.3c0,0,0.7-1.6-0.1-2.6c-0.2-0.3-0.2-0.6-0.2-0.9c0.1-0.4-0.3-1.2-0.7-1.5c-0.3-0.3-1.9-1.6-3-2.6
	c-1.8,0.3-3.5,1-5.1,1.9c-2.2,1.4-3.8,3.5-4.9,6c0.8,1.2,1.5,2.6,2.2,4c0.2,0.5,0.7,0.9,1.2,0.9c0,0,1.1,1.6,2.9,1
	c0,0-1.7-1.9,2.1-5.4C1081.8,111.7,1083.5,114.3,1083.5,114.3z"/>
<path class="st5" d="M1087.3,145.5c-0.1,4.2-2.8,8.1-1.2,12.4c0.2,0.7,1.1,1.1,1.5,0.5c4.5-5.8,5.8-8.4,8.3-15.5
	c1.1-3.2,0.3-5-0.2-3.8v0.1l-8.5-10.1c-0.5,0.1-1.1-0.2-1.4-0.7c-0.6-0.7-0.6-1.5-0.1-1.9c0.5-0.4,1.3-0.1,1.9,0.6
	c0.4,0.5,0.5,1.1,0.4,1.4l8.8,10.5c0,0,0.4-0.2,0-1.1c-0.5-0.8-3.1-6.4-2.2-11.4c0,0,0.2-0.9-0.2-1.2l-11.3-11.2c0,0-1.5-1-4.1,1.2
	c-2.5,2-3.1,4.3-2.5,5.4c0,0,6.6,8.1,9.5,13.7c0,0,0,0.4,2.3,1.2c2.3,0.8,3.2,1.2,7.1,4c0.1,0.1,0.2,0.1,0.3,0.1
	c-2.2,5.8-3.8,11.9-8.1,16.4c-0.5-4,2.2-8.1,1.5-12.4c-0.1-0.6-0.9-0.9-1.3-0.6c-3.6,2.2-6,6.5-9.9,8.2c-5.5,2.4-4.1-5.2-5.3-8.4
	c-0.6-1.7-1.8-2.5-3.5-1.9c-4.6,1.4-10.2,6-14.9,1.4c-0.9-0.9-0.1,0.4,0.8,1.2c2.8,2.7,5.8,3.4,9.4,1.8c2.1-0.9,6.5-4.4,7.1,0.3
	c0.2,1.8-0.1,3.8,0.3,5.6C1073.3,158.9,1083.2,149,1087.3,145.5z"/>
<g>
	<path class="st6" d="M1080.2,9.9c8.1,0,16.3,0,24.4,0c0.7,0,0.8,0.1,0.8,0.8c-0.1,1.5-0.1,3,0,4.5c0,0.7-0.2,0.7-0.7,0.7
		c-6.4,0-12.8,0-19.2,0c-9.5,0-19,0-28.5,0c-1.2,0-1.3,0.1-1.3,1.3c0,6.7,0,13.4,0,20.2c0,1.2,0.1,1.3,1.2,1.3c9.7,0,19.4,0,29.1,0
		c0.7,0,0.8,0.2,0.8,0.8c-0.1,1.5,0,3.1,0,4.6c0,0.5-0.1,0.6-0.6,0.6c-10.1,0-20.3,0-30.4,0c-3.5,0-6.1-2.5-6.1-6.1
		c0-7.5,0-15,0-22.5c0-3.8,2.4-6.1,6.4-6.1c7.8,0,15.6,0,23.5,0C1079.8,9.9,1080,9.9,1080.2,9.9z"/>
	<path class="st6" d="M1075,59c-8.1,0-16.3,0-24.4,0c-0.7,0-0.8-0.2-0.8-0.8c0.1-1.4,0.1-2.9,0-4.3c0-0.7,0.1-0.9,0.9-0.9
		c9.1,0,18.3,0,27.4,0c6.7,0,13.5,0,20.2,0c1.1,0,1.2-0.2,1.2-1.3c0-6.8,0-13.6,0-20.3c0-1.1-0.1-1.2-1.2-1.2c-9.6,0-19.3,0-28.9,0
		c-1,0-1,0-1-1.1c0-1.5,0-2.9,0-4.4c0-0.5,0.1-0.6,0.6-0.6c10.1,0,20.3,0,30.4,0c3.6,0,6.1,2.6,6.1,6.2c0,7.4,0,14.9,0,22.3
		c0,3.8-2.4,6.1-6.2,6.2C1091.2,59,1083.1,59,1075,59L1075,59z"/>
	<path class="st7" d="M1075.2,69.7c0.1,3,0,6,0,8.9c0,0.6,0,0.9-0.7,0.9c-0.7,0-0.7-0.3-0.7-0.8c0-3.5,0-7,0-10.5
		c0-0.3-0.2-0.7,0.2-0.7c0.5,0,1-0.3,1.4,0.3c0.2,0.3,0.5,0.7,0.7,0.9c2,2.8,3.9,5.7,6,8.5c0.3-0.1,0.2-0.3,0.2-0.5
		c-0.2-2.9,0-5.7-0.1-8.6c0-0.7,0.4-0.6,0.7-0.7c0.5,0,0.7,0,0.7,0.7c0,3.5,0,7,0,10.5c0,0.3,0.3,0.8-0.2,0.8
		c-0.5,0.1-1.1,0.3-1.6-0.4c-1.6-2.3-3.3-4.7-4.8-6.9C1076.4,71.4,1075.8,70.6,1075.2,69.7z M1082,77.2
		C1082,77.3,1082,77.3,1082,77.2C1082,77.4,1082,77.4,1082,77.2C1082.1,77.3,1082.1,77.3,1082,77.2L1082,77.2z"/>
	<path class="st7" d="M1086.5,73.5c0-1.8,0-3.5,0-5.3c0-0.5,0.1-0.7,0.6-0.7c2,0,4.1,0,6.2,0c0.7,0,0.5,0.4,0.6,0.7
		c0,0.4,0.1,0.7-0.5,0.7c-1.6,0-3.2,0-4.7,0c-0.5,0-0.7,0.1-0.7,0.7c0,0.9,0,1.9,0,2.8c0,0.4,0.1,0.5,0.5,0.5c1.4,0,2.7,0,4.1,0
		c0.6,0,0.7,0.2,0.6,0.7c0,0.5,0,0.7-0.6,0.7c-1.3-0.1-2.7,0-4,0c-0.5,0-0.6,0.1-0.6,0.6c0,1,0,2,0,3c0,0.6,0.2,0.7,0.7,0.6
		c1.7,0,3.3,0,4.9,0c0.6,0,0.7,0.2,0.6,0.7c0,0.5,0,0.7-0.6,0.7c-2.1,0-4.3,0-6.4,0c-0.5,0-0.7-0.1-0.7-0.7
		C1086.5,77.1,1086.5,75.2,1086.5,73.5z"/>
	<path class="st7" d="M1069.3,71.6c0-1.2,0-2.4,0-3.6c0-0.6,0.4-0.5,0.7-0.4c0.3,0,0.8-0.3,0.8,0.4c0,2.7,0.2,5.4-0.1,8.1
		c-0.2,2.2-1.6,3.5-3.8,3.7c-0.6,0.1-1.1,0.1-1.7,0c-2.3-0.4-3.6-1.8-3.7-4.3c-0.1-2.5,0-5,0-7.4c0-0.7,0.5-0.5,0.8-0.5
		c0.4-0.1,0.7,0,0.7,0.6c0,2.1,0,4.3,0,6.4c0,0.3,0,0.5,0,0.7c0.1,2.6,2.5,4.1,4.9,2.8c1.1-0.6,1.5-1.7,1.5-2.8
		C1069.3,74,1069.3,72.8,1069.3,71.6L1069.3,71.6z"/>
	<path class="st7" d="M1058.3,69.3c-1.3-0.6-2.5-0.7-3.8-0.7c-0.6,0.1-1.1,0.3-1.5,0.7c-0.8,0.9-0.6,2.4,0.6,3
		c0.8,0.5,1.9,0.6,2.8,0.8c1.8,0.6,2.5,1.5,2.5,3.2s-0.9,2.7-2.6,3.3c-1.4,0.4-2.8,0.4-4.1,0c-1.5-0.4-1.2-0.3-1.2-1.7
		c0.7,0.2,1.3,0.4,2,0.5c0.9,0.2,1.9,0.2,2.7-0.1c1-0.3,1.6-0.9,1.7-2c0-0.9-0.5-1.5-1.5-1.9c-0.7-0.2-1.4-0.4-2-0.6
		c-2-0.6-3-1.7-2.8-3.4c0.2-1.7,1.5-2.9,3.4-3.1c0.9-0.1,2-0.1,2.9,0.3C1058.6,68,1058.4,67.7,1058.3,69.3z"/>
	<path class="st7" d="M1099.5,74.1c0-1.6,0-3.1,0-4.7c0-0.5-0.1-0.7-0.7-0.7c-0.9,0.1-2,0-2.9,0c-0.6,0-0.5-0.4-0.5-0.7
		c0-0.4-0.1-0.7,0.5-0.7c2.9,0,5.7,0,8.6,0c0.7,0,0.5,0.4,0.6,0.7c0,0.4,0,0.7-0.6,0.7c-0.9,0-1.9,0-2.9,0c-0.6,0-0.7,0.1-0.7,0.7
		c0,3.2,0,6.2,0,9.4c0,0.7-0.2,0.7-0.7,0.7c-0.6,0-0.7-0.1-0.7-0.7C1099.5,77.3,1099.5,75.7,1099.5,74.1z"/>
	<path class="st8" d="M1082,77.2L1082,77.2C1082.1,77.3,1082.1,77.3,1082,77.2C1082,77.4,1082,77.4,1082,77.2
		C1082,77.3,1082,77.3,1082,77.2z"/>
</g>
</svg>
