<?xml version="1.0" encoding="utf-8"?>
<!-- Generator: Adobe Illustrator 24.3.0, SVG Export Plug-In . SVG Version: 6.00 Build 0)  -->
<svg version="1.1" id="Layer_1" xmlns="http://www.w3.org/2000/svg" xmlns:xlink="http://www.w3.org/1999/xlink" x="0px" y="0px"
	 viewBox="0 0 248 90" style="enable-background:new 0 0 248 90;" xml:space="preserve">
<style type="text/css">
	.st0{fill:#FFFFFF;}
	.st1{fill:#808080;}
	.st2{font-family:'ArialMT';}
	.st3{font-size:7px;}
	.st4{font-size:10px;}
	.st5{fill:#3B5B71;}
</style>
<g id="Frame_1">
	<g id="Signature_label">
		<path id="Rectangle_1" class="st0" d="M4.8,0h238.4c2.7,0,4.8,2.1,4.8,4.8v80.4c0,2.7-2.1,4.8-4.8,4.8H4.8C2.1,90,0,87.9,0,85.2
			V4.8C0,2.1,2.1,0,4.8,0z"/>
		
			<g id="Electronically_signed_by__x23__x23_SIGNERNAME_x23__x23__Date_and_time_of_signature__x23__x23_SIGNTIME_x23__x23__Authenticated_by__x23__x23_IDP_x23__x23_">
			<text transform="matrix(1 0 0 1 7.2333 14.3926)" class="st1 st2 st3">Electronically signed by  </text>
			<text transform="matrix(1 0 0 1 7.2333 41.3926)" class="st1 st2 st3">Date and time of signature  </text>
			<text transform="matrix(1 0 0 1 7.2333 68.3926)" class="st1 st2 st3">Authenticated by  </text>
			<text transform="matrix(1 0 0 1 7.2333 26.3926)" class="st2 st4">##SIGNERNAME##  </text>
			<text transform="matrix(1 0 0 1 7.2333 53.3926)" class="st2 st4">##SIGNTIME##  </text>
			<text transform="matrix(1 0 0 1 7.2333 80.3926)" class="st2 st4">##IDP##</text>
			<text transform="matrix(1 0 0 1 7.2333 31.3926)" class="st2 st4"> </text>
			<text transform="matrix(1 0 0 1 7.2333 58.3926)" class="st2 st4"> </text>
		</g>
	</g>
	<g>
		<polygon class="st5" points="231.4,34.2 231.7,36.8 232.9,37.7 234.2,36.8 234.5,34.2 232.9,33.7 		"/>
		<path class="st5" d="M234.6,34.1l-1.7-0.6h-0.1l-1.7,0.6H231v0.1l0.3,2.7l0,0l0,0l1.4,1h0.1l0,0l1.4-1l0,0l0,0L234.6,34.1
			L234.6,34.1L234.6,34.1z M234.3,36.8l-1.4,1l-1.4-1l-0.3-2.7l1.7-0.6l1.7,0.6L234.3,36.8z"/>
	</g>
	<path class="st5" d="M234.9,32.3c0.8-1.9,1.2-3.9,1.2-5.9c0-8.8-7.2-16-16-16s-15.9,7.2-15.9,15.9s7.2,16,16,16
		c3.8,0,7.4-1.4,10.3-3.8c0.6,0.5,1.5,0.8,2.4,0.8c2.1,0,3.8-1.7,3.8-3.8C236.6,34.1,236,33,234.9,32.3z M220.1,41.7
		c-3.7,0-7.1-1.3-9.7-3.5c1.3-3.1,3.8-5.4,6.8-6.4l0.3-0.1v-1.2l-0.2-0.1c-2.2-1.1-3.6-3.4-3.6-5.8c0-3.6,2.9-6.5,6.5-6.5
		s6.5,2.9,6.5,6.5c0,2.5-1.5,4.7-3.7,5.8l-0.2,0.1v1.2l0.3,0.1c2.6,0.8,4.8,2.7,6.2,5.1c0.2,0.5,0.5,0.8,0.8,1.2
		C227.2,40.4,223.8,41.7,220.1,41.7z M232.9,38.7c-1.3,0-2.4-0.7-2.9-1.8l0,0l0,0c0-0.1-0.1-0.2-0.1-0.3l0,0
		c-0.1-0.3-0.2-0.7-0.2-1.1c0-1.4,0.9-2.6,2.1-3c0.4-0.1,0.7-0.2,1.1-0.2c1.8,0,3.2,1.4,3.2,3.2C236.1,37.3,234.7,38.7,232.9,38.7z"
		/>
</g>
</svg>
